<?xml version="1.0" standalone="no"?>
<!DOCTYPE svg PUBLIC "-//W3C//DTD SVG 20010904//EN"
 "http://www.w3.org/TR/2001/REC-SVG-20010904/DTD/svg10.dtd">
<svg version="1.0" xmlns="http://www.w3.org/2000/svg"
 width="540.000000pt" height="960.000000pt" viewBox="0 0 540.000000 960.000000"
 preserveAspectRatio="xMidYMid meet">

<g transform="translate(0.000000,960.000000) scale(0.100000,-0.100000)"
fill="#000000" stroke="none">
<path d="M0 4800 l0 -4800 2700 0 2700 0 0 2979 0 2978 -37 7 c-21 3 -55 6
-75 6 -21 0 -38 5 -38 10 0 6 5 10 11 10 24 0 139 91 139 111 0 10 -2 19 -5
19 -3 0 -42 -25 -88 -55 -45 -30 -92 -55 -104 -55 -12 0 -23 -5 -25 -11 -3 -8
-39 -9 -127 -4 -101 6 -121 10 -109 20 13 13 287 196 400 268 46 29 58 42 58
62 0 28 -6 31 -29 12 -9 -8 -61 -45 -116 -82 -252 -174 -348 -235 -366 -235
-10 0 -19 -5 -19 -11 0 -9 -32 -10 -117 -5 -64 4 -120 9 -125 12 -12 7 444
308 465 306 9 0 15 3 13 7 -9 14 53 53 74 46 12 -4 20 -2 20 4 0 6 -6 11 -12
12 -16 1 42 28 61 29 9 0 5 -8 -10 -21 -24 -21 -24 -21 -2 -15 18 6 22 4 17
-8 -3 -9 -1 -16 5 -16 17 0 26 4 24 11 -2 5 51 5 72 -1 6 -1 18 -2 28 -1 15 1
17 12 16 109 -1 67 -6 110 -13 114 -8 6 -7 8 2 8 9 0 12 305 12 1490 l0 1490
-2700 0 -2700 0 0 -4800z m3446 3269 c10 -17 -13 -36 -27 -22 -12 12 -4 33 11
33 5 0 12 -5 16 -11z m-86 -9 c0 -5 -4 -10 -10 -10 -5 0 -10 5 -10 10 0 6 5
10 10 10 6 0 10 -4 10 -10z m210 0 c0 -5 -4 -10 -10 -10 -5 0 -10 5 -10 10 0
6 5 10 10 10 6 0 10 -4 10 -10z m675 -120 c3 -5 1 -10 -4 -10 -6 0 -11 5 -11
10 0 6 2 10 4 10 3 0 8 -4 11 -10z m305 -5 c11 -13 8 -15 -14 -15 -25 0 -33
10 -19 23 10 11 19 8 33 -8z m806 -14 c-8 -13 -75 -19 -79 -6 -3 6 14 11 40
13 25 1 42 -2 39 -7z m-1156 -11 c0 -5 -7 -10 -15 -10 -8 0 -15 5 -15 10 0 6
7 10 15 10 8 0 15 -4 15 -10z m75 0 c3 -5 1 -10 -4 -10 -6 0 -11 5 -11 10 0 6
2 10 4 10 3 0 8 -4 11 -10z m200 1 c7 -12 -12 -24 -25 -16 -11 7 -4 25 10 25
5 0 11 -4 15 -9z m-90 -26 c0 -10 -6 -20 -12 -22 -8 -3 -13 5 -13 22 0 17 5
25 13 23 6 -3 12 -13 12 -23z m-3685 -45 c0 -5 -16 -10 -35 -10 -19 0 -35 5
-35 10 0 6 16 10 35 10 19 0 35 -4 35 -10z m95 0 c-3 -5 -15 -10 -26 -10 -10
0 -19 5 -19 10 0 6 12 10 26 10 14 0 23 -4 19 -10z m1555 -50 c0 -11 -4 -20
-10 -20 -5 0 -10 9 -10 20 0 11 5 20 10 20 6 0 10 -9 10 -20z m40 -5 c0 -8 -4
-15 -10 -15 -5 0 -10 7 -10 15 0 8 5 15 10 15 6 0 10 -7 10 -15z m150 -5 c0
-5 -7 -10 -16 -10 -8 0 -12 5 -9 10 3 6 10 10 16 10 5 0 9 -4 9 -10z m2237
-253 c3 -5 -2 -16 -13 -24 -16 -11 -17 -17 -6 -33 10 -16 10 -20 -1 -20 -19 0
-36 20 -30 36 3 9 -10 17 -41 25 -25 6 -46 15 -46 19 0 12 129 9 137 -3z
m-2074 -355 c-3 -18 -10 -31 -17 -29 -14 5 -17 60 -2 69 17 11 24 -4 19 -40z
m45 12 c1 -17 -2 -24 -11 -22 -17 6 -22 48 -5 48 8 0 15 -12 16 -26z m802 -89
c-7 -8 -17 -15 -23 -15 -6 0 -2 7 9 15 25 19 30 19 14 0z m47 -11 c-3 -3 -12
-4 -19 -1 -8 3 -5 6 6 6 11 1 17 -2 13 -5z m96 -1 c-13 -2 -35 -2 -50 0 -16 2
-5 4 22 4 28 0 40 -2 28 -4z m774 -49 c-3 -3 -12 -4 -19 -1 -8 3 -5 6 6 6 11
1 17 -2 13 -5z m-3222 -64 c3 -5 1 -10 -4 -10 -6 0 -11 5 -11 10 0 6 2 10 4
10 3 0 8 -4 11 -10z m-1027 -22 c32 1 33 0 30 -36 -3 -32 -7 -37 -28 -38 -14
0 -34 -5 -46 -11 -30 -17 -41 -3 -36 50 4 45 6 48 26 41 11 -4 36 -6 54 -6z
m3192 -49 c-13 -6 -47 -25 -75 -43 -259 -169 -903 -566 -919 -566 -9 0 -16 -6
-16 -13 0 -11 -11 -12 -45 -7 -42 6 -64 16 -54 23 2 1 67 40 144 87 141 84
320 194 385 235 169 107 279 172 285 167 3 -3 18 -8 33 -10 15 -2 23 0 20 4
-10 10 37 45 54 40 7 -3 47 17 88 44 41 26 86 48 100 48 l25 1 -25 -10z m265
-5 c-6 -3 -125 -77 -265 -167 -285 -181 -593 -375 -673 -424 -28 -18 -60 -32
-69 -33 -10 0 -18 -6 -18 -13 0 -11 -18 -13 -82 -9 -104 6 -121 13 -82 37 16
10 54 34 84 53 30 19 133 83 230 142 96 59 216 132 267 164 51 31 96 56 100
56 4 1 24 14 43 30 19 17 40 30 46 30 7 0 15 6 17 13 4 9 6 9 6 0 1 -6 -9 -19
-21 -27 -12 -9 -17 -16 -11 -16 7 0 15 5 19 11 4 7 28 9 68 6 64 -5 123 13
110 35 -4 7 -3 8 4 4 11 -6 53 16 172 89 30 19 57 32 60 28 3 -3 0 -7 -5 -9z
m254 -18 c-27 -23 -998 -636 -1007 -636 -5 0 -14 -6 -20 -13 -8 -10 -31 -11
-102 -3 -50 5 -89 13 -88 17 3 8 550 352 671 422 40 24 48 26 53 12 3 -8 11
-15 16 -15 7 0 7 4 0 13 -13 15 3 39 38 56 22 11 23 10 8 -2 -20 -15 -24 -37
-8 -37 6 0 10 4 10 10 0 5 7 7 16 3 8 -3 13 -12 9 -21 -5 -13 -3 -13 11 -1 10
8 12 15 5 17 -6 2 -11 8 -11 13 0 12 41 11 60 -2 12 -8 9 -9 -10 -5 -14 3 -19
3 -12 0 10 -5 10 -9 0 -22 -11 -13 -8 -12 20 2 18 9 30 22 26 27 -4 7 1 9 15
4 12 -4 21 -2 21 4 0 6 7 11 15 11 18 0 20 16 3 24 -7 3 0 2 16 -1 21 -4 27
-3 22 6 -5 7 -2 10 6 9 7 -2 12 2 11 9 -2 7 3 10 11 7 12 -5 112 48 126 67 8
10 65 38 69 33 2 -2 2 -6 0 -8z m261 -16 c-22 -17 -305 -202 -475 -310 -30
-19 -153 -98 -272 -175 -120 -77 -233 -144 -250 -150 -18 -5 -33 -16 -33 -23
0 -11 -16 -13 -82 -6 -46 4 -91 8 -100 9 -33 3 -26 11 55 62 45 28 168 104
272 170 105 66 210 130 235 144 25 13 47 27 50 31 12 16 180 116 180 108 0 -5
-11 -17 -25 -26 -31 -20 -27 -28 7 -15 17 6 29 6 37 -2 16 -16 26 0 11 18 -16
19 -1 19 24 0 11 -8 15 -19 11 -27 -6 -10 -5 -10 4 -2 10 9 10 17 1 35 -10 23
-10 23 4 5 15 -18 16 -18 43 -1 24 16 26 16 14 2 -16 -20 -3 -22 21 -3 10 7
14 17 10 21 -4 5 -1 5 6 1 7 -5 21 -2 30 6 9 8 60 41 112 73 52 33 97 63 98
67 2 4 11 8 20 8 13 0 11 -5 -8 -20z m300 2 c0 -17 -50 -33 -68 -22 -15 9 -14
10 4 5 13 -3 26 1 34 10 14 16 30 20 30 7z m285 -22 c-11 -4 -158 -100 -327
-212 -524 -347 -688 -453 -721 -465 -18 -6 -31 -16 -30 -21 1 -5 -17 -8 -40
-6 -143 12 -177 16 -177 22 1 4 122 84 271 177 148 94 293 185 322 203 115 75
137 85 137 67 0 -14 3 -15 14 -6 10 8 21 8 41 1 41 -16 135 -1 135 21 0 5 6 9
13 9 8 0 24 11 37 25 12 13 26 22 30 20 4 -2 29 11 56 30 27 19 69 45 94 60
57 32 79 46 109 68 13 9 31 17 40 16 12 0 11 -2 -4 -9z m289 -11 c-3 -5 -51
-39 -107 -76 -56 -37 -288 -190 -516 -340 -227 -151 -421 -277 -430 -280 -9
-2 -26 -9 -38 -15 -13 -6 -47 -8 -85 -4 -35 4 -77 7 -95 6 -40 0 -50 14 -19
28 13 6 95 57 182 115 88 57 209 135 269 172 61 38 112 71 115 75 14 16 67 44
79 42 7 -2 10 1 7 6 -7 12 22 25 35 16 5 -3 9 3 10 13 0 16 1 16 9 -2 8 -19 9
-19 9 0 1 14 4 16 13 7 9 -9 7 -16 -7 -32 -10 -11 -13 -20 -8 -20 6 0 16 6 22
14 18 22 50 26 67 9 8 -8 12 -18 9 -21 -3 -4 -10 0 -15 8 -6 9 -10 10 -10 3 0
-6 4 -14 9 -17 14 -9 42 5 34 18 -3 6 -3 8 2 4 11 -11 47 11 39 24 -4 6 -3 8
4 4 6 -3 72 33 147 81 123 80 213 135 240 147 6 3 4 8 -4 14 -10 7 -6 10 13
10 14 0 23 -5 20 -9z m-420 -13 c-3 -9 -12 -12 -22 -9 -15 6 -9 11 25 22 1 1
0 -5 -3 -13z m221 4 c3 -5 1 -10 -4 -10 -6 0 -11 5 -11 10 0 6 2 10 4 10 3 0
8 -4 11 -10z m408 3 c-7 -2 -19 -2 -25 0 -7 3 -2 5 12 5 14 0 19 -2 13 -5z
m92 -3 c-3 -5 -12 -10 -18 -10 -7 0 -6 4 3 10 19 12 23 12 15 0z m-2200 -10
c-3 -5 -16 -15 -28 -21 -21 -10 -21 -9 2 10 25 23 36 27 26 11z m1210 -28
c-33 -21 -132 -86 -220 -143 -88 -58 -243 -159 -345 -225 -102 -65 -221 -143
-265 -171 -44 -29 -88 -53 -97 -53 -10 0 -18 -7 -18 -15 0 -13 -12 -14 -72
-10 -98 8 -138 15 -138 23 0 4 39 32 88 61 48 30 163 104 255 163 92 59 172
108 177 108 6 0 10 5 10 10 0 6 4 10 10 10 9 0 66 34 177 107 29 19 56 32 61
29 5 -3 18 6 28 19 24 33 30 32 39 -7 4 -18 9 -27 12 -20 2 6 11 12 19 12 8 0
11 -6 7 -16 -4 -12 0 -14 23 -8 39 9 76 33 69 44 -3 6 1 7 9 4 8 -3 33 7 56
21 33 21 40 29 29 36 -10 7 -7 8 11 4 18 -3 37 4 65 25 22 16 47 29 55 29 8 1
-12 -16 -45 -37z m-375 18 c0 -5 -2 -10 -4 -10 -3 0 -8 5 -11 10 -3 6 -1 10 4
10 6 0 11 -4 11 -10z m590 0 c0 -5 -5 -10 -11 -10 -5 0 -7 5 -4 10 3 6 8 10
11 10 2 0 4 -4 4 -10z m-1185 -10 c-3 -5 -12 -10 -18 -10 -7 0 -6 4 3 10 19
12 23 12 15 0z m555 -25 c7 -9 8 -15 2 -15 -5 0 -12 7 -16 15 -3 8 -4 15 -2
15 2 0 9 -7 16 -15z m1113 0 c-3 -9 -8 -14 -10 -11 -3 3 -2 9 2 15 9 16 15 13
8 -4z m-1703 1 c0 -3 -4 -8 -10 -11 -5 -3 -10 -1 -10 4 0 6 5 11 10 11 6 0 10
-2 10 -4z m35 -6 c-3 -5 -12 -10 -18 -10 -7 0 -6 4 3 10 19 12 23 12 15 0z
m523 -15 c-3 -3 -9 2 -12 12 -6 14 -5 15 5 6 7 -7 10 -15 7 -18z m211 22 c-2
-1 -13 -9 -24 -17 -19 -14 -19 -14 -6 3 7 9 18 17 24 17 6 0 8 -1 6 -3z m-309
-31 c-7 -7 -13 -7 -20 0 -6 6 -3 10 10 10 13 0 16 -4 10 -10z m1430 7 c-1 -5
-22 -21 -48 -37 -44 -28 -363 -240 -748 -498 -89 -59 -171 -108 -183 -108 -11
0 -21 -5 -21 -11 0 -9 -30 -10 -107 -5 -59 4 -111 10 -116 13 -4 2 36 33 90
67 54 34 139 89 188 121 104 67 201 130 265 171 25 15 51 27 59 25 7 -1 11 1
8 6 -7 11 61 58 70 49 4 -4 -3 -9 -15 -13 -24 -6 -30 -23 -9 -23 8 0 24 -11
37 -25 19 -20 21 -27 10 -40 -7 -9 9 -4 39 12 46 25 50 29 34 40 -16 12 -16
14 3 28 23 17 34 19 34 5 0 -5 -7 -10 -15 -10 -8 0 -15 -4 -15 -10 0 -5 4 -10
9 -10 14 0 125 62 129 72 2 4 9 8 15 8 6 0 19 7 29 17 21 19 56 40 81 49 9 3
17 10 17 15 0 5 5 9 10 9 12 0 124 72 128 83 2 4 8 7 13 7 5 0 9 -3 9 -7z
m-1176 -14 c-4 -8 1 -9 17 -5 20 6 21 5 6 -4 -18 -11 -37 -6 -37 11 0 5 5 9
11 9 5 0 7 -5 3 -11z m730 -14 c15 -12 8 -23 -7 -12 -2 1 -11 -4 -20 -12 -10
-7 -17 -9 -17 -3 0 5 8 13 17 16 15 6 15 8 3 16 -8 6 -10 10 -5 10 6 -1 19 -7
29 -15z m546 -25 c0 -5 -5 -10 -11 -10 -5 0 -7 5 -4 10 3 6 8 10 11 10 2 0 4
-4 4 -10z m-410 -4 c0 -3 -4 -8 -10 -11 -5 -3 -10 -1 -10 4 0 6 5 11 10 11 6
0 10 -2 10 -4z m-292 -74 c6 -2 12 1 12 6 0 5 8 13 18 16 13 6 12 2 -5 -15
-18 -19 -24 -20 -37 -9 -9 7 -16 22 -15 34 1 19 2 19 8 -3 4 -14 12 -26 19
-29z m-273 28 c3 -6 -1 -7 -9 -4 -18 7 -21 14 -7 14 6 0 13 -4 16 -10z m505 0
c0 -5 -2 -10 -4 -10 -3 0 -8 5 -11 10 -3 6 -1 10 4 10 6 0 11 -4 11 -10z m320
0 c-20 -13 -33 -13 -25 0 3 6 14 10 23 10 15 0 15 -2 2 -10z m-677 -15 c-3 -9
-8 -14 -10 -11 -3 3 -2 9 2 15 9 16 15 13 8 -4z m417 -19 c0 -9 -7 -12 -20 -9
-11 3 -20 9 -20 14 0 5 9 9 20 9 11 0 20 -6 20 -14z m40 5 c0 -5 -7 -12 -16
-15 -14 -5 -15 -4 -4 9 14 17 20 19 20 6z m-102 -29 c2 -7 -2 -10 -12 -6 -9 3
-16 11 -16 16 0 13 23 5 28 -10z m462 -3 c-14 -11 -56 -41 -95 -67 -530 -359
-657 -442 -674 -442 -12 0 -21 -5 -21 -11 0 -8 -31 -10 -112 -4 -122 8 -141
12 -112 28 11 6 89 56 174 112 307 201 335 219 352 219 9 0 15 3 12 7 -5 9 45
41 70 44 31 4 32 4 16 15 -12 8 -13 10 -1 10 8 0 24 8 35 18 17 14 18 14 8 1
-7 -10 -15 -27 -17 -39 -2 -12 -12 -28 -21 -35 -13 -9 -14 -14 -5 -19 14 -9
40 21 41 47 0 28 16 20 28 -15 9 -26 11 -27 7 -6 -5 26 -5 26 25 11 37 -18 65
-12 104 22 16 13 33 22 39 18 6 -4 8 0 4 11 -4 10 -3 15 3 11 5 -3 40 15 77
40 69 46 109 61 63 24z m-170 1 c0 -5 -5 -10 -11 -10 -5 0 -7 5 -4 10 3 6 8
10 11 10 2 0 4 -4 4 -10z m51 -3 c-6 -8 -8 -17 -4 -20 3 -4 0 -7 -8 -7 -11 0
-11 -2 1 -10 9 -6 10 -10 3 -10 -20 0 -23 16 -7 38 8 12 18 22 21 22 3 0 0 -6
-6 -13z m-431 -7 c8 -5 11 -10 5 -10 -5 0 -17 5 -25 10 -8 5 -10 10 -5 10 6 0
17 -5 25 -10z m314 -21 c-8 -13 -21 -11 -27 5 -4 10 0 12 14 9 10 -3 16 -9 13
-14z m-229 -9 c3 -5 1 -10 -4 -10 -6 0 -11 5 -11 10 0 6 2 10 4 10 3 0 8 -4
11 -10z m485 -31 c0 -6 -4 -7 -10 -4 -5 3 -10 -1 -10 -9 0 -19 -16 -21 -26 -4
-4 6 1 17 11 24 19 14 35 10 35 -7z m-255 1 c3 -6 -1 -7 -9 -4 -18 7 -21 14
-7 14 6 0 13 -4 16 -10z m62 4 c-3 -3 -12 -4 -19 -1 -8 3 -5 6 6 6 11 1 17 -2
13 -5z m-387 -18 c0 -8 6 -17 13 -19 6 -3 2 -6 -10 -6 -13 -1 -23 1 -23 3 0 2
-3 11 -6 20 -4 11 -1 16 10 16 9 0 16 -6 16 -14z m519 -15 c7 -5 12 -14 10
-20 -3 -7 -11 -3 -21 9 -18 21 -13 26 11 11z m-189 -21 c0 -5 -4 -10 -10 -10
-5 0 -10 5 -10 10 0 6 5 10 10 10 6 0 10 -4 10 -10z m-4555 -205 c0 -32 -4
-54 -10 -52 -14 5 -15 107 -1 107 7 0 11 -22 11 -55z m175 -36 c0 -73 -2 -80
-17 -74 -10 4 -31 11 -48 14 -24 6 -30 12 -28 32 1 14 0 17 -3 7 -3 -10 -10
-18 -16 -18 -5 0 -8 7 -4 15 3 8 1 15 -4 15 -6 0 -10 20 -10 45 l0 45 65 0 65
0 0 -81z m63 -19 c0 -58 -3 -75 -14 -75 -11 0 -15 19 -17 78 -3 70 -1 78 14
75 14 -2 17 -15 17 -78z m3732 -845 c84 -5 81 -4 59 -20 -19 -14 -19 -14 2
-15 11 0 25 5 31 11 7 7 25 9 49 5 l37 -7 -6 -101 c-4 -55 -8 -102 -9 -103 -3
-3 -107 9 -243 27 -60 9 -90 17 -89 26 1 6 2 25 3 40 1 26 7 30 79 51 79 24
138 50 114 51 -8 0 -52 -13 -99 -30 -46 -16 -86 -30 -89 -30 -6 0 -5 62 3 89
6 22 9 23 57 16 28 -3 74 -8 101 -10z m420 -65 c33 -6 79 -10 101 -10 64 1 70
-10 64 -126 -4 -73 -8 -98 -18 -96 -7 1 -56 7 -110 13 -130 15 -140 16 -194
30 l-48 12 6 91 c3 50 7 96 9 102 3 11 74 5 190 -16z m-420 -200 c50 -6 98
-15 107 -20 10 -6 27 -10 39 -10 21 0 22 -2 14 -82 -4 -46 -7 -91 -7 -101 1
-27 -14 -29 -123 -11 -55 8 -113 17 -130 18 -16 2 -42 6 -57 11 -26 7 -28 10
-28 65 0 31 3 78 6 105 l7 47 41 -6 c23 -4 82 -11 131 -16z m370 -40 c7 0 16
5 18 10 3 6 4 5 3 -2 -1 -7 -12 -14 -24 -16 -16 -3 -22 2 -21 15 0 10 3 13 6
6 2 -7 11 -13 18 -13z m25 -25 c58 -10 123 -20 145 -24 32 -5 40 -10 38 -26
-2 -11 -6 -59 -9 -107 l-7 -87 -76 6 c-42 3 -123 16 -181 27 l-105 21 4 100
c2 55 5 103 7 106 5 9 56 4 184 -16z m47 19 c-3 -3 -12 -4 -19 -1 -8 3 -5 6 6
6 11 1 17 -2 13 -5z m-3028 -77 c-36 -25 -113 -67 -116 -63 -2 2 22 20 53 40
32 19 60 33 63 31 2 -3 2 -6 0 -8z m601 -676 c104 -18 117 -21 151 -36 33 -16
33 -16 4 -9 -72 17 -298 20 -303 5 -2 -6 -9 -8 -15 -4 -6 4 -25 8 -41 10 -28
3 -29 2 -12 -10 17 -13 17 -14 2 -20 -11 -5 -15 -3 -10 5 4 7 3 8 -5 4 -6 -4
-20 -2 -29 5 -14 11 -15 11 -4 -1 14 -16 16 -34 3 -25 -6 3 -15 -4 -21 -15
-12 -22 -1 -27 18 -8 8 8 15 9 23 1 7 -7 2 -15 -15 -27 -50 -32 -21 -50 34
-21 34 17 40 45 11 45 -34 0 -32 18 2 23 17 3 45 8 61 11 41 10 134 -21 153
-51 22 -33 12 -104 -21 -147 -14 -19 -26 -38 -26 -43 0 -4 19 -19 41 -33 45
-27 149 -134 149 -153 0 -8 -3 -8 -11 0 -9 9 -16 8 -27 -4 -12 -11 -12 -17 -3
-23 10 -5 9 -9 -3 -13 -11 -4 -16 -1 -16 11 0 15 -2 15 -10 2 -6 -8 -15 -32
-20 -52 -7 -24 -17 -38 -27 -38 -9 0 -14 -3 -10 -6 3 -4 -1 -13 -9 -21 -11
-12 -28 -14 -72 -9 -31 3 -88 8 -127 11 -58 3 -62 3 -25 -4 123 -23 191 -41
152 -41 -6 0 -9 -6 -6 -13 2 -7 -4 -22 -16 -32 -11 -10 -20 -22 -20 -27 0 -9
-23 -35 -51 -56 -14 -10 -32 -6 -105 24 -138 56 -136 55 -129 44 3 -6 13 -10
21 -10 8 0 14 -4 14 -10 0 -5 6 -10 13 -10 6 0 44 -16 82 -35 39 -19 64 -35
58 -35 -7 0 -13 -9 -13 -19 0 -11 -6 -22 -12 -24 -10 -4 -9 -8 2 -16 12 -8 10
-12 -11 -20 -26 -9 -44 -35 -40 -58 1 -6 -14 -19 -33 -28 -19 -9 -40 -23 -47
-31 -6 -8 -23 -14 -36 -14 -22 0 -24 -2 -12 -16 12 -15 9 -16 -31 -10 -34 4
-40 3 -25 -4 15 -8 10 -9 -24 -5 -34 4 -46 2 -57 -12 -7 -10 -14 -13 -14 -6 0
8 -21 10 -67 8 -37 -2 -78 1 -91 6 -15 6 -29 6 -34 1 -13 -13 59 -40 153 -56
44 -8 83 -17 87 -20 3 -4 1 -15 -4 -24 -8 -12 -25 -17 -56 -17 -70 -1 -138
-35 -138 -69 0 -9 -5 -16 -11 -16 -6 0 -9 -8 -7 -17 4 -19 -56 -55 -78 -46
-13 5 -59 85 -92 162 -27 62 -52 182 -52 248 0 24 -7 66 -16 94 -24 73 -16
166 19 212 15 20 27 43 27 52 0 27 77 193 117 253 68 102 166 186 288 246 61
30 135 62 165 71 30 9 60 18 65 20 23 8 224 4 275 -4z m1560 -411 c0 -5 9 -10
21 -10 15 0 19 -5 15 -15 -3 -8 -1 -15 4 -15 6 0 10 7 10 17 0 14 2 14 20 -2
l21 -19 -23 -13 -23 -14 25 4 c14 3 32 8 41 11 10 5 19 2 22 -7 4 -11 0 -13
-16 -10 -22 4 -22 4 -2 -12 20 -17 19 -17 -8 -11 -19 5 -26 3 -22 -4 3 -5 11
-10 17 -10 18 0 132 -61 151 -81 10 -10 14 -19 9 -19 -5 0 -17 9 -27 20 -10
11 -27 22 -39 26 -11 4 -43 17 -71 29 -110 50 -149 58 -268 53 -74 -4 -127
-11 -157 -23 -55 -22 -90 -23 -152 -5 -73 22 -51 65 26 51 4 -1 13 2 20 7 18
15 106 25 106 13 0 -6 10 -11 23 -10 20 0 20 1 3 8 -25 10 -10 19 45 26 33 5
40 4 29 -4 -8 -6 -10 -11 -4 -11 6 0 17 7 24 15 10 13 38 17 148 23 17 1 32
-2 32 -8z m106 -25 c17 -16 14 -18 -10 -9 -9 3 -16 10 -16 15 0 13 9 11 26 -6z
m-323 -218 c45 -19 61 -36 35 -38 -7 0 -2 -6 12 -12 47 -22 71 -42 90 -72 23
-37 35 -95 20 -95 -6 0 -8 -5 -5 -10 3 -6 -1 -13 -9 -16 -9 -3 -16 -12 -16
-20 0 -8 -7 -14 -16 -14 -14 0 -16 7 -11 40 3 22 2 42 -2 44 -4 3 -8 -7 -9
-22 -1 -14 -9 -36 -17 -49 -8 -13 -23 -35 -32 -50 -17 -28 -17 -28 3 -10 23
19 40 22 49 7 3 -5 0 -7 -8 -4 -8 3 -20 -3 -28 -12 -13 -16 -12 -17 6 -11 17
6 17 4 -2 -9 -13 -9 -23 -24 -23 -33 0 -14 -2 -14 -10 -1 -7 11 -9 7 -7 -15 2
-28 -1 -30 -30 -30 -20 -1 -40 -9 -53 -23 -11 -12 -27 -22 -35 -22 -8 0 -16
-8 -16 -17 -4 -59 -23 -95 -42 -80 -2 1 -11 -4 -20 -11 -9 -8 -21 -11 -27 -7
-6 4 -16 2 -23 -3 -7 -5 -47 -14 -90 -20 -43 -6 -81 -13 -85 -16 -3 -4 10 -23
30 -44 20 -20 50 -59 67 -87 30 -47 31 -53 25 -119 l-7 -68 64 6 64 7 -25 -20
c-14 -11 -29 -21 -33 -21 -5 0 -5 -4 -2 -10 3 -5 -8 -2 -24 8 -25 14 -35 15
-62 5 -26 -10 -35 -10 -41 0 -4 7 -1 17 9 25 15 10 12 12 -16 12 -41 0 -86
-45 -94 -92 -2 -18 -3 -34 -2 -36 1 -2 18 7 38 18 30 18 38 19 63 8 33 -15 54
-32 54 -46 0 -5 -11 -31 -26 -57 -14 -26 -23 -54 -20 -62 3 -8 2 -12 -2 -9 -4
2 -14 -10 -22 -27 -7 -18 -22 -38 -32 -45 -10 -7 -18 -19 -18 -26 0 -22 -43
-151 -52 -157 -6 -3 -9 -10 -9 -15 1 -5 -9 -25 -22 -44 -12 -19 -31 -56 -41
-82 -21 -57 -31 -60 -109 -36 -54 16 -56 41 -11 124 21 38 49 90 61 116 26 52
78 265 86 348 8 91 31 133 98 180 32 23 64 51 70 62 21 40 -7 121 -38 111 -11
-4 -159 28 -200 42 -9 3 -2 24 22 68 68 124 107 274 106 405 0 50 4 78 13 87
7 8 16 11 20 8 3 -4 6 -1 6 5 0 7 6 12 13 12 8 0 24 9 37 20 31 27 38 25 13
-2 -32 -35 -74 -119 -70 -137 3 -11 7 -7 16 14 l13 30 23 -27 c13 -16 27 -28
30 -28 12 0 4 34 -15 57 -20 25 -20 25 0 54 20 27 48 43 67 37 5 -2 25 14 44
34 57 60 139 69 242 25z m-277 -22 c-27 -21 -53 -20 -36 0 7 8 22 15 34 15 21
-1 21 -1 2 -15z m824 5 c0 -5 -2 -10 -4 -10 -3 0 -8 5 -11 10 -3 6 -1 10 4 10
6 0 11 -4 11 -10z m887 -277 c-3 -10 -5 -4 -5 12 0 17 2 24 5 18 2 -7 2 -21 0
-30z m53 -12 c0 -22 -4 -43 -10 -46 -6 -4 -10 12 -10 39 0 25 5 46 10 46 6 0
10 -18 10 -39z m-465 -33 c-3 -13 -7 -38 -8 -56 -6 -57 -17 -47 -17 16 0 49 3
62 15 62 11 0 14 -7 10 -22z m395 -172 c-7 -7 -10 14 -10 70 0 105 14 119 18
18 2 -44 -2 -82 -8 -88z m-43 117 c-3 -10 -5 -4 -5 12 0 17 2 24 5 18 2 -7 2
-21 0 -30z m-607 23 c0 -2 -7 -7 -16 -10 -8 -3 -12 -2 -9 4 6 10 25 14 25 6z
m700 -176 c-7 -36 -16 75 -10 125 4 34 6 29 10 -30 3 -38 3 -81 0 -95z m-3216
40 c-12 -4 -24 -16 -28 -25 -7 -20 -22 -13 -29 15 -5 18 0 20 36 19 34 0 38
-2 21 -9z m26 -14 c0 -3 -4 -8 -10 -11 -5 -3 -10 -1 -10 4 0 6 5 11 10 11 6 0
10 -2 10 -4z m-93 -38 c-3 -7 -5 -2 -5 12 0 14 2 19 5 13 2 -7 2 -19 0 -25z
m-37 -34 c0 -8 -4 -14 -8 -14 -4 0 -8 9 -8 19 0 11 4 17 8 15 4 -3 8 -12 8
-20z m3259 -56 l-1 -63 -9 45 c-8 40 -5 80 7 80 2 0 4 -28 3 -62z m51 -18 c0
-27 -4 -50 -10 -50 -5 0 -10 23 -10 50 0 28 5 50 10 50 6 0 10 -22 10 -50z
m-410 -34 c0 -3 -4 -8 -10 -11 -5 -3 -10 -1 -10 4 0 6 5 11 10 11 6 0 10 -2
10 -4z m-3113 -49 c4 -6 -3 -8 -20 -3 -14 3 -27 2 -29 -3 -2 -5 -26 -20 -55
-34 -50 -24 -52 -24 -56 -5 -5 17 -2 18 24 13 29 -7 30 -6 23 22 -6 23 -5 26
7 16 11 -9 20 -8 38 1 25 14 57 11 68 -7z m118 -17 c19 -8 19 -9 -2 -9 -12 -1
-25 4 -28 9 -7 12 2 12 30 0z m2989 -5 c-4 -8 -8 -15 -10 -15 -2 0 -4 7 -4 15
0 8 4 15 10 15 5 0 7 -7 4 -15z m-3094 -65 c14 -11 30 -20 36 -20 7 0 14 -7
18 -15 10 -26 -20 -16 -58 20 -40 38 -37 47 4 15z m-52 -62 c46 3 52 2 52 -16
0 -36 -25 -46 -75 -30 -25 9 -45 11 -45 6 0 -16 71 -39 101 -33 26 6 30 4 35
-23 4 -19 11 -29 19 -26 7 3 15 -5 19 -18 7 -22 7 -22 16 -3 l9 20 0 -20 c1
-17 3 -18 11 -5 9 13 11 13 19 0 5 -8 7 -19 4 -25 -4 -5 5 0 19 13 22 20 26
21 38 7 10 -12 10 -15 -4 -15 -14 0 -14 -2 2 -18 15 -17 19 -17 35 -4 16 14
17 13 17 -11 0 -17 -5 -27 -14 -27 -24 0 -28 -18 -12 -52 9 -17 16 -42 16 -55
0 -20 -4 -23 -21 -18 -15 5 -19 4 -15 -4 4 -6 14 -11 22 -11 35 0 9 -18 -41
-28 -85 -17 -186 17 -251 86 -33 35 -35 36 -29 11 5 -19 2 -28 -10 -33 -9 -3
-21 -4 -26 0 -5 3 -9 -3 -9 -13 -1 -17 -1 -17 -11 0 -5 9 -18 17 -27 16 -10 0
-12 -3 -4 -6 31 -12 7 -20 -48 -16 -45 4 -60 2 -60 -7 0 -8 -3 -10 -7 -7 -3 4
-12 2 -20 -5 -11 -9 -11 -13 1 -27 42 -48 94 -168 116 -272 19 -85 -4 -195
-27 -131 -3 9 -13 25 -20 34 -8 9 -12 21 -9 27 4 6 2 20 -4 31 -8 14 -8 26 0
40 13 25 -17 130 -31 108 -7 -11 -10 -11 -17 0 -5 7 -21 20 -37 28 -24 12 -26
12 -21 -1 3 -8 -5 -26 -17 -39 -43 -47 -47 -56 -58 -128 -6 -40 -17 -100 -25
-132 -7 -32 -12 -62 -10 -65 2 -3 -11 -14 -30 -23 -33 -17 -34 -17 -61 6 -71
60 -131 263 -120 403 12 152 125 226 270 177 44 -15 48 -15 75 4 15 11 58 32
94 47 36 14 73 34 82 44 12 13 20 53 27 136 5 65 8 124 5 132 -4 9 6 5 27 -9
26 -18 42 -22 85 -20z m323 -28 c28 0 54 -34 54 -71 0 -33 -1 -34 -34 -31 -18
2 -52 12 -75 23 -22 11 -31 18 -18 15 27 -5 28 4 2 34 -30 34 -25 43 18 36 20
-3 44 -6 53 -6z m-61 -100 c0 -5 -4 -10 -10 -10 -5 0 -10 5 -10 10 0 6 5 10
10 10 6 0 10 -4 10 -10z m-1560 -78 c0 -4 -14 -16 -30 -25 -30 -18 -50 -16
-50 5 0 7 4 7 13 -1 11 -8 18 -6 33 9 20 20 34 25 34 12z m-100 -54 c0 -9 4
-8 10 2 6 9 10 10 10 3 0 -20 -16 -23 -36 -8 -17 13 -18 14 -1 15 9 0 17 -6
17 -12z m-40 -9 c12 -8 11 -9 -6 -4 -19 5 -21 2 -18 -27 1 -18 0 -27 -3 -20
-2 6 -11 12 -19 12 -15 0 -8 30 10 42 14 10 18 10 36 -3z m20 -29 c-24 -15
-36 -11 -14 4 10 8 21 12 24 10 2 -3 -2 -9 -10 -14z m-113 -6 c-3 -3 -12 -4
-19 -1 -8 3 -5 6 6 6 11 1 17 -2 13 -5z m-52 -24 c-3 -5 -11 -10 -16 -10 -6 0
-7 5 -4 10 3 6 11 10 16 10 6 0 7 -4 4 -10z m54 -20 c-6 -5 -18 -6 -26 -3 -19
8 -16 11 13 11 17 0 22 -3 13 -8z m-46 -15 c9 -23 -8 -26 -26 -4 -16 18 -16
19 2 19 10 0 21 -7 24 -15z m-44 -31 c-9 -11 -7 -14 10 -14 13 0 19 -4 16 -11
-4 -6 -13 -8 -21 -5 -7 3 -17 -1 -22 -10 -7 -12 -10 -12 -27 0 -19 14 -19 15
5 10 20 -5 22 -3 10 5 -10 7 -11 11 -2 11 6 0 12 9 12 20 0 13 5 18 15 14 12
-5 13 -10 4 -20z m-69 -44 c8 -5 11 -10 5 -10 -5 0 -17 5 -25 10 -8 5 -10 10
-5 10 6 0 17 -5 25 -10z m1945 -84 c82 -38 141 -105 114 -130 -9 -8 -10 -8 -4
4 4 8 -5 3 -22 -12 -16 -16 -32 -28 -35 -28 -3 0 -22 -16 -43 -35 -20 -20 -40
-34 -42 -31 -6 6 -53 -60 -53 -74 0 -6 -4 -10 -10 -10 -12 0 -31 -71 -35 -128
-2 -24 -6 -46 -9 -49 -3 -4 -6 -15 -6 -25 0 -10 -7 -21 -15 -24 -8 -4 -15 -13
-15 -21 0 -8 -5 -11 -11 -7 -6 3 -15 1 -19 -6 -12 -19 -106 79 -132 137 -28
65 -29 168 0 253 40 119 147 210 247 210 22 0 63 -11 90 -24z m888 -45 c49
-19 89 -123 59 -153 -9 -9 -12 -9 -12 1 0 7 -5 9 -10 6 -6 -4 -8 -11 -5 -16 4
-5 2 -9 -3 -9 -5 0 -24 -3 -42 -7 -25 -5 -31 -3 -25 7 7 12 -7 10 -53 -7 -8
-4 -10 0 -6 11 5 14 0 13 -37 -4 -41 -18 -45 -18 -56 -3 -22 29 -15 79 14 114
53 62 114 83 176 60z m-1403 -11 c0 -5 -5 -10 -11 -10 -5 0 -7 5 -4 10 3 6 8
10 11 10 2 0 4 -4 4 -10z m1520 -416 c11 -26 20 -48 20 -49 0 -2 -17 -9 -37
-16 -21 -6 -67 -28 -103 -47 -36 -19 -76 -41 -90 -48 -14 -8 -47 -17 -73 -20
-37 -5 -51 -12 -57 -28 -4 -12 -38 -52 -74 -90 -36 -38 -63 -72 -60 -77 3 -5
-1 -9 -8 -10 -10 0 -10 -2 0 -6 18 -7 15 -21 -8 -28 -11 -3 -31 -25 -45 -48
-13 -23 -34 -48 -45 -55 -11 -7 -18 -17 -15 -22 3 -5 0 -8 -7 -5 -16 6 -78
-83 -78 -111 0 -11 7 -30 16 -42 17 -25 19 -23 -58 -41 -66 -15 -145 -14 -205
4 -35 10 -88 15 -166 14 -62 -1 -118 0 -123 4 -6 3 -27 2 -47 -3 -42 -9 -56 2
-33 25 9 9 34 15 63 15 26 0 73 7 103 15 30 8 75 15 99 15 25 0 81 11 125 25
74 22 86 30 143 89 34 35 83 96 108 135 26 38 53 72 59 74 7 3 43 51 80 106
38 56 80 110 95 120 14 10 78 37 141 59 63 22 144 52 180 66 36 14 68 25 72
25 4 1 16 -20 28 -45z m-2365 -154 c-3 -5 -11 -10 -16 -10 -6 0 -7 5 -4 10 3
6 11 10 16 10 6 0 7 -4 4 -10z m41 -18 c-13 -14 -18 -14 -28 -3 -11 12 -10 13
6 7 13 -4 17 -2 13 8 -4 10 -1 13 9 9 14 -5 14 -7 0 -21z m-84 8 c6 0 6 -6 -2
-15 -6 -8 -9 -19 -6 -24 10 -15 38 -1 32 15 -7 18 -2 18 13 0 10 -12 0 -23
-52 -60 -61 -44 -97 -57 -97 -37 0 5 10 11 23 13 12 2 22 10 22 18 0 8 5 18
10 22 14 10 -4 9 -30 -2 -17 -7 -17 -9 -2 -9 9 -1 17 -6 17 -12 0 -6 -17 -8
-47 -5 -34 4 -42 3 -28 -3 14 -7 16 -10 5 -11 -26 -4 -34 -6 -53 -14 -26 -12
-34 2 -11 18 10 8 33 26 49 40 17 14 35 26 42 26 6 0 13 3 15 8 6 14 63 42 76
37 8 -3 18 -5 24 -5z m3003 -2 c14 -6 25 -16 26 -22 0 -6 2 -18 4 -26 11 -53
8 -62 -34 -118 -25 -32 -59 -67 -75 -78 -70 -42 -128 -74 -136 -74 -17 0 -100
-57 -120 -83 -11 -13 -33 -30 -50 -37 -16 -7 -30 -16 -30 -21 0 -5 -6 -9 -14
-9 -8 0 -16 -4 -18 -8 -5 -14 -122 -82 -141 -82 -9 0 -17 -4 -17 -10 0 -5 -7
-10 -15 -10 -23 0 -64 -28 -113 -77 -24 -24 -47 -43 -52 -43 -5 0 -11 -8 -14
-18 -4 -10 -20 -34 -36 -52 -28 -31 -32 -32 -57 -21 -15 7 -33 21 -41 32 -10
14 -20 17 -40 13 -15 -4 -31 -11 -37 -15 -15 -14 -35 -10 -35 7 0 16 44 80 70
101 8 7 31 20 50 29 19 9 54 34 77 55 23 21 85 59 138 84 54 26 147 78 208
117 62 39 116 71 122 72 5 1 31 14 56 29 25 15 60 32 77 38 32 11 32 12 30 72
-2 71 7 92 57 136 30 26 44 31 85 31 27 0 61 -5 75 -12z m-3105 -142 c0 -2 -7
-7 -16 -10 -8 -3 -12 -2 -9 4 6 10 25 14 25 6z m3535 -56 c-20 -22 -35 -26
-35 -10 0 6 7 10 15 10 8 0 15 5 15 10 0 6 5 10 12 10 6 0 3 -9 -7 -20z
m-3231 -275 c4 -11 -1 -15 -19 -15 -24 0 -32 10 -18 23 11 12 31 8 37 -8z
m2460 -360 c-16 -14 -35 -25 -42 -25 -7 0 -10 -5 -6 -12 4 -6 3 -8 -4 -4 -5 3
-12 0 -15 -6 -3 -9 -10 -8 -23 6 -11 10 -14 16 -7 12 12 -7 65 18 97 46 11 10
22 16 24 13 3 -3 -8 -16 -24 -30z m-54 5 c0 -5 -4 -10 -10 -10 -5 0 -10 5 -10
10 0 6 5 10 10 10 6 0 10 -4 10 -10z m-45 -10 c3 -5 1 -10 -4 -10 -6 0 -11 5
-11 10 0 6 2 10 4 10 3 0 8 -4 11 -10z m-55 -60 c0 -5 -5 -10 -11 -10 -5 0 -7
5 -4 10 3 6 8 10 11 10 2 0 4 -4 4 -10z m65 0 c3 -5 1 -10 -5 -10 -6 0 -22
-12 -35 -26 -22 -23 -27 -25 -42 -13 -16 13 -17 12 -5 -3 9 -11 10 -18 2 -23
-5 -3 -10 -3 -10 2 0 4 -3 19 -7 32 -5 21 -4 22 16 11 19 -10 25 -8 42 14 22
28 34 32 44 16z m-1405 -55 c14 -16 10 -18 -14 -9 -9 3 -16 10 -16 15 0 14 16
11 30 -6z m-680 -5 c0 -5 -7 -7 -15 -4 -8 4 -15 8 -15 10 0 2 7 4 15 4 8 0 15
-4 15 -10z m450 -19 c0 -12 -28 -22 -34 -12 -3 5 -3 11 1 15 9 9 33 7 33 -3z
m412 -39 c-3 -15 21 -42 37 -42 15 0 14 27 -1 33 -7 3 1 4 17 4 17 -1 34 -6
38 -12 4 -6 7 -1 5 10 -2 12 3 20 12 20 11 0 14 -9 12 -32 -2 -35 8 -42 28
-18 14 17 40 20 40 6 0 -6 -5 -13 -10 -16 -20 -12 2 -27 29 -20 14 4 32 8 39
8 6 0 12 4 12 8 0 4 7 10 16 13 15 6 15 3 -1 -20 -16 -25 -16 -27 -1 -21 11 4
15 3 11 -4 -4 -6 -13 -8 -20 -5 -8 3 -19 -2 -26 -10 -8 -9 -21 -13 -35 -10
-14 4 -26 1 -31 -7 -4 -8 -20 -22 -35 -32 -35 -22 -36 -33 -4 -30 32 4 46 13
46 31 0 8 7 14 15 14 9 0 26 7 39 15 22 14 24 14 30 -2 4 -9 4 -14 0 -11 -8 9
-42 -23 -59 -56 -15 -29 -4 -44 15 -21 8 9 21 13 32 9 16 -5 19 -2 16 13 -2
10 -11 17 -19 15 -8 -2 -11 0 -7 4 5 4 19 8 32 10 19 2 23 -1 19 -13 -4 -11
-1 -14 13 -11 10 2 18 10 17 16 -2 7 5 12 15 12 13 0 17 -9 18 -35 0 -20 -2
-32 -5 -27 -3 5 -18 12 -34 16 -32 8 -47 -15 -29 -45 7 -10 12 -24 12 -31 0
-10 -3 -9 -9 1 -5 8 -14 10 -22 5 -7 -4 -24 -9 -37 -10 -28 -3 -42 -15 -25
-21 7 -2 9 -11 6 -19 -9 -23 18 -16 39 12 20 24 21 24 38 7 10 -10 15 -22 12
-27 -2 -4 -8 -2 -13 5 -8 12 -11 11 -19 -1 -12 -19 -13 -50 -1 -50 5 0 11 6
14 13 6 16 13 8 21 -23 6 -20 5 -22 -4 -10 -9 11 -13 12 -17 3 -7 -19 -23 -16
-23 5 -1 13 -6 11 -24 -12 -17 -21 -30 -27 -45 -23 -14 3 -21 0 -21 -9 0 -16
-9 -18 -29 -5 -7 5 -10 14 -6 21 5 8 -3 10 -31 6 l-39 -6 40 25 c47 29 65 31
66 8 1 -17 2 -17 6 0 5 19 14 22 29 7 12 -12 44 -3 44 12 0 5 -6 8 -12 5 -7
-2 -21 3 -31 11 -11 10 -21 12 -25 7 -4 -6 -13 -10 -19 -11 -7 -1 -19 -2 -25
-3 -21 -2 -73 -52 -70 -66 4 -22 -18 -28 -37 -11 -10 9 -23 16 -30 16 -7 0 -9
5 -6 10 3 5 -2 10 -12 10 -16 0 -18 -6 -15 -35 3 -22 0 -35 -7 -35 -7 0 -10 4
-6 9 7 12 -9 22 -41 26 -15 1 -28 -4 -31 -11 -3 -8 -8 -14 -12 -14 -9 0 -42
56 -36 62 8 7 -16 68 -26 68 -14 0 -10 -20 7 -38 15 -14 15 -17 0 -27 -9 -7
-13 -15 -9 -18 3 -4 -1 -7 -11 -7 -12 0 -15 6 -10 24 5 21 3 24 -15 19 -12 -3
-24 -9 -27 -14 -7 -12 -34 -11 -34 1 0 6 6 10 13 10 8 0 22 8 31 19 15 16 15
19 2 24 -10 4 -14 16 -12 34 2 15 1 22 -1 14 -5 -15 -54 -60 -65 -61 -5 0 -8
5 -8 10 0 6 7 10 15 10 8 0 13 6 11 13 -3 6 -7 24 -10 40 -4 16 -13 27 -23 27
-14 0 -14 2 2 20 9 10 21 18 25 17 9 -2 60 54 60 65 0 4 -6 11 -13 15 -8 4
-16 17 -19 29 -5 20 -2 21 56 17 53 -4 64 -1 80 16 16 17 17 23 6 36 -7 9 -9
19 -5 23 4 4 10 1 12 -5 7 -19 48 -16 66 5 19 20 73 23 69 4z m3069 -7 c0 -5
-9 -11 -21 -13 -15 -3 -18 1 -14 13 7 17 35 17 35 0z m69 0 c0 -8 -4 -15 -10
-15 -5 0 -7 7 -4 15 4 8 8 15 10 15 2 0 4 -7 4 -15z m63 -13 c-6 -14 -25 -12
-30 4 -2 5 5 10 16 10 11 0 17 -5 14 -14z m36 -12 c-18 -16 -35 -28 -37 -26
-7 7 41 56 55 56 8 0 0 -13 -18 -30z m-3529 10 c0 -5 -4 -10 -10 -10 -5 0 -10
5 -10 10 0 6 5 10 10 10 6 0 10 -4 10 -10z m3480 -51 c0 -10 -40 -32 -47 -26
-2 3 5 8 16 12 20 6 20 8 6 28 -22 31 -18 44 5 17 11 -13 20 -27 20 -31z
m-140 32 c0 -5 -9 -7 -20 -4 -11 3 -20 7 -20 9 0 2 9 4 20 4 11 0 20 -4 20 -9z
m97 -13 c18 -15 16 -31 -2 -24 -9 3 -15 0 -15 -10 0 -18 -42 -12 -88 12 -15 8
-34 14 -42 15 -8 0 -10 3 -5 5 6 2 35 -5 65 -15 39 -14 57 -16 62 -8 9 14 1
26 -26 38 -17 8 -16 8 9 3 16 -3 36 -10 42 -16z m-4238 -14 c-8 -10 -14 -24
-15 -33 -3 -52 -3 -52 -24 -39 -16 11 -23 10 -37 -6 -17 -18 -17 -18 10 -12
19 5 26 3 22 -4 -3 -5 -13 -10 -21 -10 -8 0 -14 -5 -14 -11 0 -5 -4 -8 -10 -4
-10 6 -41 -21 -57 -49 -11 -19 -54 -11 -46 10 7 18 -11 18 -26 0 -10 -12 -6
-15 18 -21 16 -3 32 -14 36 -23 5 -13 3 -14 -5 -5 -8 7 -22 8 -43 2 -39 -11
-59 -11 -32 1 18 8 18 9 -5 9 -15 1 -32 -5 -40 -11 -9 -9 -8 -6 2 9 22 33 122
105 104 74 -8 -12 4 -41 16 -41 6 0 8 6 5 14 -3 8 1 20 9 27 8 6 12 19 9 28
-5 18 45 63 68 60 29 -4 48 2 46 14 -3 25 2 36 19 39 24 6 27 1 11 -18z m1431
-19 c0 -13 -4 -26 -8 -29 -4 -2 -8 10 -8 29 0 19 4 31 8 29 4 -3 8 -16 8 -29z
m-680 15 c0 -5 -7 -10 -15 -10 -8 0 -15 5 -15 10 0 6 7 10 15 10 8 0 15 -4 15
-10z m1324 -5 c-4 -8 -11 -15 -16 -15 -6 0 -5 6 2 15 7 8 14 15 16 15 2 0 1
-7 -2 -15z m-1374 -10 c0 -9 -6 -12 -16 -8 -13 5 -13 7 -2 14 17 11 18 11 18
-6z m710 5 c0 -5 -4 -10 -10 -10 -5 0 -10 5 -10 10 0 6 5 10 10 10 6 0 10 -4
10 -10z m-623 -19 c-3 -11 4 -26 16 -36 16 -14 17 -19 6 -26 -8 -5 -18 -9 -24
-9 -5 0 -3 5 5 10 12 8 9 10 -12 10 -22 0 -26 4 -24 23 1 13 6 28 10 35 11 19
29 14 23 -7z m-761 -28 c-10 -10 -19 5 -10 18 6 11 8 11 12 0 2 -7 1 -15 -2
-18z m64 24 c0 -2 -10 -12 -22 -23 l-23 -19 19 23 c18 21 26 27 26 19z m635
-17 c3 -5 -1 -10 -9 -10 -9 0 -16 5 -16 10 0 6 4 10 9 10 6 0 13 -4 16 -10z
m813 -12 c2 -9 -6 -18 -18 -21 -21 -5 -24 1 -14 28 8 19 28 15 32 -7z m-890
-14 c-2 -25 -38 -57 -38 -34 0 11 29 60 36 60 2 0 3 -12 2 -26z m-134 -25 c-8
-13 -24 -1 -24 18 0 13 3 13 15 3 8 -7 12 -16 9 -21z m3616 27 c0 -3 -4 -8
-10 -11 -5 -3 -10 -1 -10 4 0 6 5 11 10 11 6 0 10 -2 10 -4z m-3405 -16 c3 -6
-1 -7 -9 -4 -10 4 -16 1 -16 -7 0 -7 -3 -10 -6 -6 -7 7 4 27 16 27 5 0 12 -4
15 -10z m-710 -10 c-3 -5 -12 -10 -18 -10 -7 0 -6 4 3 10 19 12 23 12 15 0z
m675 -49 c0 -16 -13 -20 -26 -6 -22 21 -18 38 6 25 11 -6 20 -14 20 -19z
m-770 15 c0 -3 -4 -8 -10 -11 -5 -3 -10 -1 -10 4 0 6 5 11 10 11 6 0 10 -2 10
-4z m49 1 c-2 -1 -13 -9 -24 -17 -19 -14 -19 -14 -6 3 7 9 18 17 24 17 6 0 8
-1 6 -3z m611 -27 c9 -16 8 -20 -5 -20 -8 0 -15 9 -15 20 0 11 2 20 5 20 2 0
9 -9 15 -20z m1050 10 c0 -5 -4 -10 -10 -10 -5 0 -10 5 -10 10 0 6 5 10 10 10
6 0 10 -4 10 -10z m-205 -20 c-3 -5 -11 -10 -16 -10 -6 0 -7 5 -4 10 3 6 11
10 16 10 6 0 7 -4 4 -10z m55 6 c0 -2 -7 -7 -16 -10 -8 -3 -12 -2 -9 4 6 10
25 14 25 6z m77 -12 c-3 -3 -12 -4 -19 -1 -8 3 -5 6 6 6 11 1 17 -2 13 -5z
m-1662 -14 c-3 -5 -16 -15 -28 -21 -21 -10 -21 -9 2 10 25 23 36 27 26 11z
m1625 0 c0 -5 -10 -10 -22 -10 -19 0 -20 2 -8 10 19 13 30 13 30 0z m-1255
-10 c3 -5 -1 -10 -9 -10 -9 0 -16 5 -16 10 0 6 4 10 9 10 6 0 13 -4 16 -10z
m432 -26 c-3 -3 -12 -4 -19 -1 -8 3 -5 6 6 6 11 1 17 -2 13 -5z m23 -30 c0
-12 -26 -30 -38 -26 -18 6 -15 20 6 25 27 7 32 7 32 1z m-60 -34 c0 -5 -4 -10
-10 -10 -5 0 -10 5 -10 10 0 6 5 10 10 10 6 0 10 -4 10 -10z m917 -26 c-3 -3
-12 -4 -19 -1 -8 3 -5 6 6 6 11 1 17 -2 13 -5z m-952 -14 c-3 -5 -12 -10 -18
-10 -7 0 -6 4 3 10 19 12 23 12 15 0z m235 6 c0 -2 -7 -7 -16 -10 -8 -3 -12
-2 -9 4 6 10 25 14 25 6z m633 -14 c-18 -18 -33 -19 -33 -2 0 7 17 15 43 19 4
0 -1 -7 -10 -17z m-763 4 c0 -2 -9 -6 -20 -9 -11 -3 -18 -1 -14 4 5 9 34 13
34 5z m640 -16 c0 -5 -4 -10 -10 -10 -5 0 -10 5 -10 10 0 6 5 10 10 10 6 0 10
-4 10 -10z m-440 -10 c0 -5 -7 -10 -15 -10 -8 0 -15 5 -15 10 0 6 7 10 15 10
8 0 15 -4 15 -10z m410 -9 c0 -11 -70 -45 -77 -37 -5 5 56 46 70 46 4 0 7 -4
7 -9z m70 -25 c0 -2 -7 -7 -16 -10 -8 -3 -12 -2 -9 4 6 10 25 14 25 6z m-325
-16 c-3 -5 -12 -10 -18 -10 -7 0 -6 4 3 10 19 12 23 12 15 0z m75 6 c0 -3 -4
-8 -10 -11 -5 -3 -10 -1 -10 4 0 6 5 11 10 11 6 0 10 -2 10 -4z"/>
<path d="M3195 6800 c-3 -5 -2 -10 4 -10 5 0 13 5 16 10 3 6 2 10 -4 10 -5 0
-13 -4 -16 -10z"/>
<path d="M3085 6740 c3 -5 11 -10 16 -10 6 0 7 5 4 10 -3 6 -11 10 -16 10 -6
0 -7 -4 -4 -10z"/>
<path d="M3315 6710 c3 -5 8 -10 11 -10 2 0 4 5 4 10 0 6 -5 10 -11 10 -5 0
-7 -4 -4 -10z"/>
<path d="M3870 6679 c0 -5 5 -7 10 -4 6 3 10 8 10 11 0 2 -4 4 -10 4 -5 0 -10
-5 -10 -11z"/>
<path d="M3787 6639 c7 -7 15 -10 18 -7 3 3 -2 9 -12 12 -14 6 -15 5 -6 -5z"/>
<path d="M4239 6573 c6 -13 17 -23 24 -23 8 0 7 -4 -3 -10 -8 -5 -12 -12 -9
-15 4 -3 11 1 17 8 9 11 6 19 -14 38 -26 24 -27 24 -15 2z"/>
<path d="M4141 6571 c-7 -5 -9 -11 -5 -14 5 -3 15 1 22 9 14 16 5 18 -17 5z"/>
<path d="M4518 6515 c-3 -14 -1 -25 3 -25 5 0 9 11 9 25 0 14 -2 25 -4 25 -2
0 -6 -11 -8 -25z"/>
<path d="M4030 6681 c0 -6 5 -13 10 -16 6 -3 10 1 10 9 0 9 -4 16 -10 16 -5 0
-10 -4 -10 -9z"/>
<path d="M3970 6650 c0 -5 5 -10 10 -10 6 0 10 5 10 10 0 6 -4 10 -10 10 -5 0
-10 -4 -10 -10z"/>
<path d="M4015 6640 c3 -5 8 -10 11 -10 2 0 4 5 4 10 0 6 -5 10 -11 10 -5 0
-7 -4 -4 -10z"/>
<path d="M4677 6484 c6 -16 19 -18 27 -5 3 5 -3 11 -13 14 -14 3 -18 1 -14 -9z"/>
<path d="M5050 6420 c-10 -19 -10 -20 9 -8 22 13 28 28 11 28 -5 0 -14 -9 -20
-20z"/>
<path d="M5000 6410 c0 -5 5 -10 10 -10 6 0 10 5 10 10 0 6 -4 10 -10 10 -5 0
-10 -4 -10 -10z"/>
<path d="M2175 4211 c-11 -5 -29 -18 -39 -30 -19 -21 -19 -21 8 -21 15 0 41 7
57 16 47 24 23 55 -26 35z"/>
<path d="M1933 4029 c1 -12 -4 -24 -11 -26 -8 -3 -10 1 -5 14 6 17 5 17 -15
-1 -17 -15 -22 -30 -22 -68 0 -52 19 -81 66 -98 14 -6 31 -25 39 -42 8 -18 14
-26 15 -18 0 13 1 13 11 0 8 -11 12 -12 16 -2 2 6 9 12 15 12 6 0 5 -6 -2 -15
-7 -9 -10 -18 -7 -21 8 -8 37 21 37 37 0 8 14 10 48 5 45 -6 46 -5 20 8 -15 8
-35 16 -45 19 -15 4 -15 5 -2 6 17 1 33 34 29 61 -1 8 -10 25 -21 38 -10 14
-19 32 -19 42 0 9 -12 29 -26 44 -22 21 -36 26 -75 26 -44 0 -49 -2 -46 -21z"/>
<path d="M2131 3854 c0 -11 3 -14 6 -6 3 7 2 16 -1 19 -3 4 -6 -2 -5 -13z"/>
<path d="M2570 3849 c-127 -23 -137 -28 -45 -22 94 6 105 8 105 24 0 5 -3 8
-7 8 -5 -1 -28 -5 -53 -10z"/>
<path d="M2338 3803 c6 -2 18 -2 25 0 6 3 1 5 -13 5 -14 0 -19 -2 -12 -5z"/>
<path d="M2283 3793 c9 -2 23 -2 30 0 6 3 -1 5 -18 5 -16 0 -22 -2 -12 -5z"/>
<path d="M2253 3663 c9 -2 23 -2 30 0 6 3 -1 5 -18 5 -16 0 -22 -2 -12 -5z"/>
<path d="M3725 3820 c-3 -5 1 -10 9 -10 9 0 16 5 16 10 0 6 -4 10 -9 10 -6 0
-13 -4 -16 -10z"/>
<path d="M3630 3801 c0 -5 11 -8 25 -7 33 1 33 16 0 16 -14 0 -25 -4 -25 -9z"/>
<path d="M3576 3561 c-3 -5 1 -11 9 -15 8 -3 15 -1 15 4 0 13 -18 22 -24 11z"/>
<path d="M3855 3524 c-41 -21 -53 -34 -32 -34 9 0 17 4 17 9 0 5 10 7 23 4 12
-3 19 -2 15 2 -4 4 0 14 10 21 24 18 3 17 -33 -2z"/>
<path d="M3915 3521 c3 -5 -3 -12 -12 -15 -11 -3 -9 -4 6 -3 27 2 42 27 16 27
-9 0 -14 -4 -10 -9z"/>
<path d="M3640 3489 c-22 -30 -22 -48 -1 -34 16 9 43 65 32 65 -5 0 -19 -14
-31 -31z"/>
<path d="M3823 3449 c-15 -15 -17 -55 -5 -63 13 -8 49 21 55 44 3 11 1 23 -4
26 -5 3 -9 -2 -9 -10 0 -21 -18 -21 -22 0 -2 12 -5 13 -15 3z"/>
<path d="M3663 3428 c-23 -30 -24 -41 -2 -21 12 12 20 25 17 28 -3 3 -10 0
-15 -7z"/>
<path d="M3687 3391 c-4 -17 -2 -18 13 -8 10 6 16 15 14 19 -9 14 -22 9 -27
-11z"/>
<path d="M3650 3355 c-8 -9 -8 -15 -2 -15 12 0 26 19 19 26 -2 2 -10 -2 -17
-11z"/>
<path d="M3470 3349 c0 -5 5 -7 10 -4 6 3 10 8 10 11 0 2 -4 4 -10 4 -5 0 -10
-5 -10 -11z"/>
<path d="M3695 3349 c-11 -17 1 -21 15 -4 8 9 8 15 2 15 -6 0 -14 -5 -17 -11z"/>
<path d="M3603 3306 c-27 -13 -28 -19 -9 -35 41 -34 87 -12 56 27 -10 12 -20
21 -22 21 -1 -1 -13 -6 -25 -13z"/>
<path d="M3515 3203 c10 -3 59 -23 108 -44 88 -39 132 -49 125 -28 -4 12 -161
66 -215 73 -21 3 -29 3 -18 -1z"/>
<path d="M3411 3129 c-1 -21 5 -42 14 -49 19 -16 19 0 0 50 l-13 35 -1 -36z"/>
<path d="M3550 3146 c0 -2 7 -7 16 -10 8 -3 12 -2 9 4 -6 10 -25 14 -25 6z"/>
<path d="M3540 2738 c0 -9 5 -20 11 -23 17 -11 20 0 4 21 -13 17 -14 17 -15 2z"/>
<path d="M1465 2380 c-3 -6 1 -7 9 -4 18 7 21 14 7 14 -6 0 -13 -4 -16 -10z"/>
<path d="M1530 2211 c0 -5 7 -14 15 -21 16 -14 18 -10 9 14 -6 17 -24 22 -24
7z"/>
<path d="M1814 1665 c8 -8 18 -15 22 -15 3 0 1 7 -6 15 -7 8 -17 15 -22 15 -5
0 -3 -7 6 -15z"/>
<path d="M1934 520 c-4 -22 -11 -40 -16 -40 -5 0 -6 -5 -2 -11 5 -8 9 -8 14 2
10 19 22 89 16 89 -3 0 -9 -18 -12 -40z"/>
<path d="M1960 539 c0 -11 5 -17 10 -14 6 3 10 13 10 21 0 8 -4 14 -10 14 -5
0 -10 -9 -10 -21z"/>
<path d="M1874 452 c5 -14 1 -21 -15 -25 -11 -3 -18 -10 -14 -16 8 -15 35 -14
35 0 0 7 8 17 17 24 15 11 15 13 -6 25 -21 11 -22 10 -17 -8z"/>
<path d="M1755 450 c3 -5 10 -10 16 -10 5 0 9 5 9 10 0 6 -7 10 -16 10 -8 0
-12 -4 -9 -10z"/>
<path d="M1985 400 c-3 -5 -1 -10 4 -10 6 0 11 5 11 10 0 6 -2 10 -4 10 -3 0
-8 -4 -11 -10z"/>
<path d="M2104 354 c9 -8 20 -12 26 -9 15 9 2 25 -21 25 -19 0 -19 -1 -5 -16z"/>
<path d="M1716 335 c8 -19 55 -29 68 -14 8 9 7 11 -5 6 -9 -3 -28 1 -42 8 -21
11 -25 11 -21 0z"/>
<path d="M2240 314 c0 -8 5 -12 10 -9 6 4 8 11 5 16 -9 14 -15 11 -15 -7z"/>
<path d="M2200 310 c-12 -8 -11 -10 8 -10 12 0 22 5 22 10 0 13 -11 13 -30 0z"/>
<path d="M2155 291 c-3 -5 -1 -12 5 -16 5 -3 10 1 10 9 0 18 -6 21 -15 7z"/>
<path d="M1880 280 c0 -5 10 -10 23 -10 18 0 19 2 7 10 -19 13 -30 13 -30 0z"/>
<path d="M1840 259 c0 -5 5 -7 10 -4 6 3 10 8 10 11 0 2 -4 4 -10 4 -5 0 -10
-5 -10 -11z"/>
<path d="M1856 215 c-17 -13 -17 -15 -2 -30 11 -12 25 -15 46 -10 49 11 50 29
2 21 -26 -4 -42 -2 -42 4 0 5 7 10 15 10 8 0 15 5 15 10 0 14 -11 12 -34 -5z"/>
<path d="M2040 210 c0 -5 5 -10 10 -10 6 0 10 5 10 10 0 6 -4 10 -10 10 -5 0
-10 -4 -10 -10z"/>
<path d="M1991 194 c0 -11 3 -14 6 -6 3 7 2 16 -1 19 -3 4 -6 -2 -5 -13z"/>
<path d="M797 443 c-4 -3 -7 -11 -7 -17 0 -6 5 -5 12 2 6 6 9 14 7 17 -3 3 -9
2 -12 -2z"/>
<path d="M775 400 c3 -5 10 -10 16 -10 5 0 9 5 9 10 0 6 -7 10 -16 10 -8 0
-12 -4 -9 -10z"/>
<path d="M5310 6380 c-8 -5 -11 -12 -7 -16 7 -8 -30 -44 -46 -44 -6 0 -8 -3
-4 -6 3 -3 28 7 56 22 38 22 47 31 39 41 -12 15 -18 16 -38 3z"/>
<path d="M5155 6370 c-3 -5 -1 -10 4 -10 6 0 11 5 11 10 0 6 -2 10 -4 10 -3 0
-8 -4 -11 -10z"/>
<path d="M5186 6361 c-18 -20 -20 -31 -6 -31 6 0 10 8 11 18 0 10 3 12 6 5 6
-17 20 -16 26 1 9 22 -19 27 -37 7z"/>
<path d="M5205 6300 c-3 -6 1 -7 9 -4 18 7 21 14 7 14 -6 0 -13 -4 -16 -10z"/>
</g>
</svg>
